<svg width="14" height="14" viewBox="0 0 14 14" fill="none" xmlns="http://www.w3.org/2000/svg">
<path d="M6.58193 0.5C2.99755 0.5 0.0819244 3.41563 0.0819244 7C0.0819244 10.5844 2.99755 13.5 6.58193 13.5C10.1663 13.5 13.0819 10.5844 13.0819 7C13.0819 3.41563 10.1663 0.5 6.58193 0.5ZM10.8804 3.49687C11.6538 4.44219 12.1226 5.64531 12.1335 6.95625C11.9507 6.91719 10.1147 6.54531 8.26786 6.77812C8.2288 6.68281 8.18974 6.5875 8.14911 6.49219C8.03349 6.22188 7.91005 5.95156 7.78036 5.6875C9.83193 4.84844 10.7632 3.65625 10.8804 3.49687ZM6.58193 1.45625C7.99286 1.45625 9.28193 1.98594 10.2616 2.85469C10.1616 2.99688 9.32568 4.12031 7.35224 4.86094C6.44286 3.18906 5.43505 1.81719 5.28036 1.61094C5.70693 1.50781 6.14286 1.45625 6.58193 1.45625ZM4.22099 1.98438C4.36786 2.18438 5.36005 3.56094 6.2788 5.19531C3.68193 5.88438 1.39442 5.875 1.14599 5.87187C1.50692 4.14844 2.66786 2.71719 4.22099 1.98438ZM1.03036 7.00781C1.03036 6.95156 1.03192 6.89375 1.03349 6.8375C1.27567 6.84219 3.9663 6.87656 6.73974 6.04688C6.89911 6.35781 7.05068 6.67344 7.18974 6.98906C7.1163 7.00937 7.04286 7.03125 6.97099 7.05469C4.10693 7.98281 2.58349 10.5062 2.45692 10.7203C1.57099 9.73594 1.03036 8.43437 1.03036 7.00781ZM6.58193 12.5594C5.29755 12.5594 4.11474 12.1219 3.17411 11.3875C3.27411 11.1828 4.39755 9.0125 7.5288 7.92031L7.56474 7.90781C8.34443 9.93281 8.6663 11.6312 8.74911 12.1187C8.0642 12.4115 7.32677 12.5614 6.58193 12.5594ZM9.68349 11.6109C9.62724 11.2734 9.33193 9.64844 8.60536 7.65312C10.346 7.375 11.8741 7.83125 12.0632 7.89062C11.8163 9.43437 10.9304 10.7687 9.68349 11.6109Z" fill="#333333"/>
</svg>
