<svg width="13" height="14" viewBox="0 0 13 14" fill="none" xmlns="http://www.w3.org/2000/svg">
<path d="M6.37313 3.79548C4.59969 3.79548 3.16844 5.22673 3.16844 7.00017C3.16844 8.77361 4.59969 10.2049 6.37313 10.2049C8.14656 10.2049 9.57782 8.77361 9.57782 7.00017C9.57782 5.22673 8.14656 3.79548 6.37313 3.79548ZM6.37313 9.08298C5.22625 9.08298 4.29031 8.14704 4.29031 7.00017C4.29031 5.8533 5.22625 4.91736 6.37313 4.91736C7.52 4.91736 8.45594 5.8533 8.45594 7.00017C8.45594 8.14704 7.52 9.08298 6.37313 9.08298ZM9.70907 2.91736C9.295 2.91736 8.96063 3.25173 8.96063 3.6658C8.96063 4.07986 9.295 4.41423 9.70907 4.41423C10.1231 4.41423 10.4575 4.08142 10.4575 3.6658C10.4576 3.56748 10.4384 3.4701 10.4008 3.37924C10.3632 3.28838 10.3081 3.20582 10.2386 3.1363C10.169 3.06677 10.0865 3.01165 9.99563 2.97408C9.90477 2.93651 9.80739 2.91724 9.70907 2.91736ZM12.62 7.00017C12.62 6.13767 12.6278 5.28298 12.5794 4.42205C12.5309 3.42205 12.3028 2.53455 11.5716 1.8033C10.8388 1.07048 9.95282 0.843922 8.95282 0.795484C8.09031 0.747047 7.23563 0.754859 6.37469 0.754859C5.51219 0.754859 4.6575 0.747047 3.79656 0.795484C2.79656 0.843922 1.90906 1.07205 1.17781 1.8033C0.444996 2.53611 0.218434 3.42205 0.169996 4.42205C0.121558 5.28455 0.129371 6.13923 0.129371 7.00017C0.129371 7.86111 0.121558 8.71736 0.169996 9.57829C0.218434 10.5783 0.446559 11.4658 1.17781 12.197C1.91062 12.9299 2.79656 13.1564 3.79656 13.2049C4.65906 13.2533 5.51375 13.2455 6.37469 13.2455C7.23719 13.2455 8.09188 13.2533 8.95282 13.2049C9.95282 13.1564 10.8403 12.9283 11.5716 12.197C12.3044 11.4642 12.5309 10.5783 12.5794 9.57829C12.6294 8.71736 12.62 7.86267 12.62 7.00017ZM11.245 10.6845C11.1309 10.9689 10.9934 11.1814 10.7731 11.4002C10.5528 11.6205 10.3419 11.758 10.0575 11.872C9.23563 12.1986 7.28406 12.1252 6.37313 12.1252C5.46219 12.1252 3.50906 12.1986 2.68719 11.8736C2.40281 11.7595 2.19031 11.622 1.97156 11.4017C1.75125 11.1814 1.61375 10.9705 1.49968 10.6861C1.17468 9.86267 1.24812 7.91111 1.24812 7.00017C1.24812 6.08923 1.17468 4.13611 1.49968 3.31423C1.61375 3.02986 1.75125 2.81736 1.97156 2.59861C2.19187 2.37986 2.40281 2.2408 2.68719 2.12673C3.50906 1.80173 5.46219 1.87517 6.37313 1.87517C7.28406 1.87517 9.23719 1.80173 10.0591 2.12673C10.3434 2.2408 10.5559 2.3783 10.7747 2.59861C10.995 2.81892 11.1325 3.02986 11.2466 3.31423C11.5716 4.13611 11.4981 6.08923 11.4981 7.00017C11.4981 7.91111 11.5716 9.86267 11.245 10.6845Z" fill="#333333"/>
</svg>
