<svg width="97" height="30" viewBox="0 0 97 30" fill="none" xmlns="http://www.w3.org/2000/svg">
<circle cx="95" cy="20" r="2" fill="#1E1E1E"/>
<path d="M13.4 7.96V22H9.98V16.22H4.66V22H1.24V7.96H4.66V13.46H9.98V7.96H13.4ZM21.9489 22.16C20.8556 22.16 19.8689 21.9267 18.9889 21.46C18.1222 20.9933 17.4356 20.3267 16.9289 19.46C16.4356 18.5933 16.1889 17.58 16.1889 16.42C16.1889 15.2733 16.4422 14.2667 16.9489 13.4C17.4556 12.52 18.1489 11.8467 19.0289 11.38C19.9089 10.9133 20.8956 10.68 21.9889 10.68C23.0822 10.68 24.0689 10.9133 24.9489 11.38C25.8289 11.8467 26.5222 12.52 27.0289 13.4C27.5356 14.2667 27.7889 15.2733 27.7889 16.42C27.7889 17.5667 27.5289 18.58 27.0089 19.46C26.5022 20.3267 25.8022 20.9933 24.9089 21.46C24.0289 21.9267 23.0422 22.16 21.9489 22.16ZM21.9489 19.2C22.6022 19.2 23.1556 18.96 23.6089 18.48C24.0756 18 24.3089 17.3133 24.3089 16.42C24.3089 15.5267 24.0822 14.84 23.6289 14.36C23.1889 13.88 22.6422 13.64 21.9889 13.64C21.3222 13.64 20.7689 13.88 20.3289 14.36C19.8889 14.8267 19.6689 15.5133 19.6689 16.42C19.6689 17.3133 19.8822 18 20.3089 18.48C20.7489 18.96 21.2956 19.2 21.9489 19.2ZM35.1433 22.16C34.1699 22.16 33.3033 21.9933 32.5433 21.66C31.7833 21.3267 31.1833 20.8733 30.7433 20.3C30.3033 19.7133 30.0566 19.06 30.0033 18.34H33.3833C33.4233 18.7267 33.6033 19.04 33.9233 19.28C34.2433 19.52 34.6366 19.64 35.1033 19.64C35.5299 19.64 35.8566 19.56 36.0833 19.4C36.3233 19.2267 36.4433 19.0067 36.4433 18.74C36.4433 18.42 36.2766 18.1867 35.9433 18.04C35.6099 17.88 35.0699 17.7067 34.3233 17.52C33.5233 17.3333 32.8566 17.14 32.3233 16.94C31.7899 16.7267 31.3299 16.4 30.9433 15.96C30.5566 15.5067 30.3633 14.9 30.3633 14.14C30.3633 13.5 30.5366 12.92 30.8833 12.4C31.2433 11.8667 31.7633 11.4467 32.4433 11.14C33.1366 10.8333 33.9566 10.68 34.9033 10.68C36.3033 10.68 37.4033 11.0267 38.2033 11.72C39.0166 12.4133 39.4833 13.3333 39.6033 14.48H36.4433C36.3899 14.0933 36.2166 13.7867 35.9233 13.56C35.6433 13.3333 35.2699 13.22 34.8033 13.22C34.4033 13.22 34.0966 13.3 33.8833 13.46C33.6699 13.6067 33.5633 13.8133 33.5633 14.08C33.5633 14.4 33.7299 14.64 34.0633 14.8C34.4099 14.96 34.9433 15.12 35.6633 15.28C36.4899 15.4933 37.1633 15.7067 37.6833 15.92C38.2033 16.12 38.6566 16.4533 39.0433 16.92C39.4433 17.3733 39.6499 17.9867 39.6633 18.76C39.6633 19.4133 39.4766 20 39.1033 20.52C38.7433 21.0267 38.2166 21.4267 37.5233 21.72C36.8433 22.0133 36.0499 22.16 35.1433 22.16Z" fill="#0099FF"/>
<path d="M46.1756 12.42C46.509 11.9 46.969 11.48 47.5556 11.16C48.1423 10.84 48.829 10.68 49.6156 10.68C50.5356 10.68 51.369 10.9133 52.1156 11.38C52.8623 11.8467 53.449 12.5133 53.8756 13.38C54.3156 14.2467 54.5356 15.2533 54.5356 16.4C54.5356 17.5467 54.3156 18.56 53.8756 19.44C53.449 20.3067 52.8623 20.98 52.1156 21.46C51.369 21.9267 50.5356 22.16 49.6156 22.16C48.8423 22.16 48.1556 22 47.5556 21.68C46.969 21.36 46.509 20.9467 46.1756 20.44V27.32H42.7556V10.84H46.1756V12.42ZM51.0556 16.4C51.0556 15.5467 50.8156 14.88 50.3356 14.4C49.869 13.9067 49.289 13.66 48.5956 13.66C47.9156 13.66 47.3356 13.9067 46.8556 14.4C46.389 14.8933 46.1556 15.5667 46.1556 16.42C46.1556 17.2733 46.389 17.9467 46.8556 18.44C47.3356 18.9333 47.9156 19.18 48.5956 19.18C49.2756 19.18 49.8556 18.9333 50.3356 18.44C50.8156 17.9333 51.0556 17.2533 51.0556 16.4ZM59.0498 9.68C58.4498 9.68 57.9565 9.50667 57.5698 9.16C57.1965 8.8 57.0098 8.36 57.0098 7.84C57.0098 7.30667 57.1965 6.86667 57.5698 6.52C57.9565 6.16 58.4498 5.98 59.0498 5.98C59.6365 5.98 60.1165 6.16 60.4898 6.52C60.8765 6.86667 61.0698 7.30667 61.0698 7.84C61.0698 8.36 60.8765 8.8 60.4898 9.16C60.1165 9.50667 59.6365 9.68 59.0498 9.68ZM60.7498 10.84V22H57.3298V10.84H60.7498ZM70.4483 19.1V22H68.7083C67.4683 22 66.5016 21.7 65.8083 21.1C65.1149 20.4867 64.7683 19.4933 64.7683 18.12V13.68H63.4083V10.84H64.7683V8.12H68.1883V10.84H70.4283V13.68H68.1883V18.16C68.1883 18.4933 68.2683 18.7333 68.4283 18.88C68.5883 19.0267 68.8549 19.1 69.2283 19.1H70.4483ZM72.6733 16.4C72.6733 15.2533 72.8866 14.2467 73.3133 13.38C73.7533 12.5133 74.3466 11.8467 75.0933 11.38C75.8399 10.9133 76.6733 10.68 77.5933 10.68C78.3799 10.68 79.0666 10.84 79.6533 11.16C80.2533 11.48 80.7133 11.9 81.0333 12.42V10.84H84.4533V22H81.0333V20.42C80.6999 20.94 80.2333 21.36 79.6333 21.68C79.0466 22 78.3599 22.16 77.5733 22.16C76.6666 22.16 75.8399 21.9267 75.0933 21.46C74.3466 20.98 73.7533 20.3067 73.3133 19.44C72.8866 18.56 72.6733 17.5467 72.6733 16.4ZM81.0333 16.42C81.0333 15.5667 80.7933 14.8933 80.3133 14.4C79.8466 13.9067 79.2733 13.66 78.5933 13.66C77.9133 13.66 77.3333 13.9067 76.8533 14.4C76.3866 14.88 76.1533 15.5467 76.1533 16.4C76.1533 17.2533 76.3866 17.9333 76.8533 18.44C77.3333 18.9333 77.9133 19.18 78.5933 19.18C79.2733 19.18 79.8466 18.9333 80.3133 18.44C80.7933 17.9467 81.0333 17.2733 81.0333 16.42ZM91.3475 7.2V22H87.9275V7.2H91.3475Z" fill="black"/>
</svg>
