<svg width="10" height="12" viewBox="0 0 10 12" fill="none" xmlns="http://www.w3.org/2000/svg">
<path d="M0.175824 4.3048C0.175824 3.78613 0.26649 3.29613 0.445157 2.8388C0.615859 2.3946 0.869476 1.98692 1.19249 1.63747C1.51485 1.29261 1.88374 0.994401 2.28849 0.751467C2.70377 0.500236 3.15336 0.310699 3.62316 0.188801C4.09863 0.0639484 4.58823 0.000983926 5.07982 0.00146761C5.83916 0.00146761 6.54582 0.162134 7.20116 0.482134C7.84793 0.796299 8.39845 1.27843 8.79516 1.87813C9.20449 2.48813 9.40782 3.17813 9.40782 3.94747C9.40782 4.4088 9.36249 4.86013 9.26982 5.30147C9.17883 5.74256 9.0342 6.17085 8.83916 6.5768C8.65324 6.96977 8.41016 7.33305 8.11782 7.6548C7.82401 7.97144 7.46819 8.22424 7.07249 8.39747C6.64289 8.58574 6.17817 8.6805 5.70916 8.67547C5.38316 8.67547 5.05782 8.5988 4.73649 8.4448C4.41516 8.29147 4.18449 8.0808 4.04582 7.8108C3.99716 7.99813 3.93049 8.2688 3.84182 8.6228C3.75649 8.97613 3.69916 9.20413 3.67382 9.30747C3.64716 9.41013 3.59782 9.58147 3.52582 9.8188C3.47699 9.99436 3.41436 10.1658 3.33849 10.3315L3.10916 10.7808C3.00998 10.9736 2.8991 11.1602 2.77716 11.3395C2.65649 11.5141 2.50716 11.7228 2.32916 11.9628L2.22982 11.9981L2.16382 11.9261C2.09249 11.1708 2.05582 10.7188 2.05582 10.5695C2.05582 10.1275 2.10849 9.63147 2.21249 9.0808C2.31449 8.5308 2.47582 7.83947 2.69249 7.00813C2.90916 6.17747 3.03316 5.6888 3.06649 5.54413C2.91382 5.2328 2.83649 4.82613 2.83649 4.32613C2.83649 3.9268 2.96116 3.5528 3.21116 3.2008C3.46182 2.85013 3.77849 2.6748 4.16249 2.6748C4.45649 2.6748 4.68449 2.77213 4.84782 2.96747C5.01182 3.16213 5.09182 3.40747 5.09182 3.7068C5.09182 4.02413 4.98649 4.48347 4.77449 5.08413C4.56249 5.68547 4.45716 6.13413 4.45716 6.43213C4.45716 6.73413 4.56516 6.9868 4.78116 7.1848C4.99432 7.3829 5.27622 7.49026 5.56716 7.48413C5.83116 7.48413 6.07582 7.42413 6.30316 7.30347C6.52694 7.18634 6.72064 7.0191 6.86916 6.8148C7.19264 6.371 7.42324 5.86649 7.54716 5.33147C7.61116 5.05013 7.66049 4.7828 7.69116 4.53147C7.72382 4.2788 7.73782 4.04013 7.73782 3.81347C7.73782 2.98213 7.47382 2.33413 6.94916 1.87013C6.42182 1.40613 5.73516 1.17547 4.89049 1.17547C3.92982 1.17547 3.12649 1.48613 2.48316 2.10947C1.83916 2.7308 1.51516 3.5208 1.51516 4.4788C1.51516 4.69013 1.54716 4.89413 1.60782 5.09147C1.66716 5.28813 1.73182 5.4448 1.80182 5.5608C1.87116 5.6748 1.93649 5.78613 1.99582 5.8888C2.05582 5.99147 2.08716 6.0648 2.08716 6.1088C2.08716 6.24347 2.05182 6.4188 1.98049 6.63547C1.90649 6.85213 1.81916 6.96013 1.71382 6.96013C1.70382 6.96013 1.66249 6.9528 1.59049 6.93747C1.34113 6.86302 1.11594 6.72386 0.937823 6.53413C0.748782 6.3375 0.599593 6.10614 0.49849 5.8528C0.397675 5.60037 0.319154 5.3396 0.263824 5.07347C0.204045 4.82165 0.174503 4.56361 0.175824 4.3048Z" fill="#333333"/>
</svg>
