<svg width="16" height="14" viewBox="0 0 16 14" fill="none" xmlns="http://www.w3.org/2000/svg">
<path d="M15.762 2.29122C15.2054 2.53789 14.6074 2.70456 13.9787 2.77989C14.6274 2.39175 15.1127 1.78087 15.344 1.06122C14.7346 1.42321 14.0676 1.67802 13.372 1.81456C12.9043 1.31513 12.2847 0.984106 11.6096 0.872871C10.9344 0.761636 10.2414 0.876416 9.63819 1.19939C9.03495 1.52236 8.55521 2.03546 8.27347 2.65902C7.99172 3.28259 7.92372 3.98172 8.08003 4.64789C6.84515 4.58589 5.63711 4.26492 4.53431 3.70583C3.43151 3.14673 2.45859 2.362 1.67869 1.40256C1.41203 1.86256 1.25869 2.39589 1.25869 2.96389C1.2584 3.47522 1.38432 3.97872 1.62528 4.42971C1.86624 4.8807 2.2148 5.26525 2.64003 5.54922C2.14688 5.53353 1.66461 5.40028 1.23336 5.16055V5.20055C1.23331 5.91772 1.48138 6.61281 1.93548 7.16789C2.38958 7.72296 3.02174 8.10384 3.7247 8.24589C3.26722 8.3697 2.78759 8.38794 2.32203 8.29922C2.52036 8.9163 2.90669 9.45591 3.42694 9.84251C3.94719 10.2291 4.57531 10.4433 5.22336 10.4552C4.12325 11.3188 2.76462 11.7873 1.36603 11.7852C1.11828 11.7853 0.870746 11.7708 0.624695 11.7419C2.04435 12.6547 3.69692 13.1391 5.3847 13.1372C11.098 13.1372 14.2214 8.40522 14.2214 4.30122C14.2214 4.16789 14.218 4.03322 14.212 3.89989C14.8196 3.46054 15.344 2.91649 15.7607 2.29322L15.762 2.29122Z" fill="#333333"/>
</svg>
